inDegrees=no
num_controls=7
num_derivatives=13
num_iterations=103
num_multipliers=7
num_parameters=0
num_slacks=7
num_states=26
objective=0.445704
objective_accelerations=0.057543
objective_balance=0.003521
objective_effort=0.022952
objective_height=0.356144
objective_ligament=0.005544
solver_duration=1403.750261
status=Solve_Succeeded
success=true
DataType=double
version=3
OpenSimVersion=4.5
endheader
time	/jointset/ground_pelvis/pelvis_tilt/value	/jointset/ground_pelvis/pelvis_tx/value	/jointset/ground_pelvis/pelvis_ty/value	/jointset/hip_l/hip_flexion_l/value	/jointset/hip_l/hip_adduction_l/value	/jointset/hip_l/hip_rotation_l/value	/jointset/back/lumbar_extension/value	/jointset/patellofemoral_l/patellar_flexion_l/value	/jointset/knee_l/knee_flexion_l/value	/jointset/knee_l/knee_adduction_l/value	/jointset/knee_l/knee_rotation_l/value	/jointset/ankle_l/ankle_angle_l/value	/jointset/subtalar_l/subtalar_angle_l/value	/jointset/ground_pelvis/pelvis_tilt/speed	/jointset/ground_pelvis/pelvis_tx/speed	/jointset/ground_pelvis/pelvis_ty/speed	/jointset/hip_l/hip_flexion_l/speed	/jointset/hip_l/hip_adduction_l/speed	/jointset/hip_l/hip_rotation_l/speed	/jointset/back/lumbar_extension/speed	/jointset/patellofemoral_l/patellar_flexion_l/speed	/jointset/knee_l/knee_flexion_l/speed	/jointset/knee_l/knee_adduction_l/speed	/jointset/knee_l/knee_rotation_l/speed	/jointset/ankle_l/ankle_angle_l/speed	/jointset/subtalar_l/subtalar_angle_l/speed	/forceset/tau_hip_flexion_l	/forceset/tau_hip_adduction_l	/forceset/tau_hip_rotation_l	/forceset/tau_knee_flexion_l	/forceset/tau_ankle_angle_l	/forceset/tau_subtalar_angle_l	/forceset/tau_lumbar_extension	lambda_cid13_p0	lambda_cid13_p1	lambda_cid13_p2	lambda_cid13_p3	lambda_cid13_p4	lambda_cid13_p5	lambda_cid14_p0	/jointset/ground_pelvis/pelvis_tilt/accel	/jointset/ground_pelvis/pelvis_tx/accel	/jointset/ground_pelvis/pelvis_ty/accel	/jointset/hip_l/hip_flexion_l/accel	/jointset/hip_l/hip_adduction_l/accel	/jointset/hip_l/hip_rotation_l/accel	/jointset/back/lumbar_extension/accel	/jointset/patellofemoral_l/patellar_flexion_l/accel	/jointset/knee_l/knee_flexion_l/accel	/jointset/knee_l/knee_adduction_l/accel	/jointset/knee_l/knee_rotation_l/accel	/jointset/ankle_l/ankle_angle_l/accel	/jointset/subtalar_l/subtalar_angle_l/accel	gamma_cid13_p0	gamma_cid13_p1	gamma_cid13_p2	gamma_cid13_p3	gamma_cid13_p4	gamma_cid13_p5	gamma_cid14_p0
1	-0.5470455655825275	-0.08087313028113241	0.5736610546756105	1.83469824876651	-0.4678330980126894	0.01364933710164651	-0.26178814140505	1.387391370683482	1.387391370683579	-0.08308688728145229	-0.174528354173797	0.2217004355095548	-0.009695960852149698	-0.01731013645673262	0.01032128173531145	0.00154332010068718	0.001386761272847136	-0.002455272411115763	0.004691304687553646	0.0001215367937544011	0.00430656436828654	0.004306564368285513	-0.005121312330581386	-0.0001454405138482947	0.02043812887341536	0.008781585696173971	-0.3317487526584594	0.01587227725924478	0.0001808360220629568	-0.3067535893108247	0.04137140595395314	0.02871474086145252	0.2836158317271856	-26.67664901767243	-8.392197819236802	1.678547743850971	6.549300348992088	-642.8493851361078	-45.81819861093263	-1.356137012846876	1.508846268755269	0.257405580814033	1.973804978094085	-6.833169668206645	-0.08000296391423393	-2.332276260825419	-0.02026327970032508	-5.29713939174998	-5.297139391750012	-0.60922480440589	-0.02524335665069662	-0.6509685386746149	-0.4486560918884814	4.972689378465848e-09	1.775368597669064e-08	-1.533860023329295e-08	2.513947433234861e-09	-1.107076565986172e-09	1.938109607887427e-08	3.062293553473505e-09
1.01	-0.5471441867416701	-0.08075711056779662	0.5737750267712363	1.834371795584373	-0.4678606465499986	0.01357840220934152	-0.2617869340089615	1.387169696990028	1.38716969699008	-0.08316576006192564	-0.1745298203901943	0.2218724090031183	-0.009629188035132415	-0.002415656966705972	0.01288422854748244	0.02124679549260164	-0.06666583388803821	-0.003051671575654614	-0.01887652801381369	0.0001189360159875169	-0.04863984617954288	-0.04863984617954815	-0.01065275899154365	-0.000147989728193323	0.01394818295318871	0.004571298343664404	-0.3316168411730284	0.01595612530536128	0.0001646775840704656	-0.3066178257917805	0.04123507865275944	0.02873413881974751	0.2835128920451456	-26.70668788100841	-8.399433690811396	1.684351293999028	6.491405307131902	-642.6866868489637	-45.83495989178815	-1.360712398495425	1.479513364598926	0.2559749678803039	1.967970962954678	-6.789571283759199	-0.04904463249762234	-2.368779158713198	0.009590561857352449	-5.29317144189464	-5.293171441895257	-0.5250352944558059	0.01221884262025617	-0.6492651996563124	-0.4074713496699633	-3.623159296062425e-09	8.085615539413633e-09	2.620717702953892e-08	2.966062040484295e-09	-1.152981633054706e-08	7.05616801509404e-08	-9.436174891162393e-09
1.02	-0.5470939101908174	-0.08061541423904676	0.5740859040494239	1.833365163081881	-0.4678940763269079	0.01327184051323916	-0.2617857828129151	1.386418603279975	1.386418603279985	-0.08329993344851082	-0.1745313161894423	0.2219792315212876	-0.009604569350187738	0.01246940554222103	0.01545660481812515	0.04092435661309783	-0.1346491027981127	-0.003631520331151023	-0.04243405607201355	0.0001102967851087372	-0.1015774389511811	-0.1015774389511905	-0.01618143355308195	-0.0001513570846721433	0.007407933794577263	0.0003507592816437645	-0.3314849296876017	0.01603997335148009	0.0001485191460696315	-0.3064820622727357	0.04109875135156717	0.02875353677804648	0.2834099523631002	-26.7425143210332	-8.405705523363274	1.690057533248033	6.45439139760619	-642.606349008823	-45.83015599784487	-1.375588767617298	1.506962872535329	0.2592914725083755	1.968622123810435	-6.819304418044468	-0.07669288210570341	-2.330215332191879	-0.02147097032274594	-5.295375836511744	-5.295375836511774	-0.6086703845210811	-0.02540698507737094	-0.6610291863515713	-0.450706433790641	-1.076816506302295e-08	2.468354398841879e-09	6.938634569766346e-08	4.855105203181032e-09	-2.120678503815184e-08	1.193050165768483e-07	-2.056549121867494e-08
1.03	-0.5468947864153243	-0.08044792130501574	0.5745933564959373	1.83167919250605	-0.4679330285092044	0.01272998380509223	-0.2617847466681036	1.385138248052985	1.385138248052888	-0.08348930898341865	-0.1745325798127337	0.2220203428476275	-0.009621991112142595	0.02735735673422925	0.0180460142173416	0.06055475130957388	-0.202517913255384	-0.004135913926981843	-0.06591216439890085	9.687809429718562e-05	-0.154485407348073	-0.1544854073480719	-0.02168517916653573	-7.283730118242649e-05	0.0008003883438831767	-0.003813974610039511	-0.3310984494984792	0.01620187786734166	0.0001008649804410926	-0.3061767263919836	0.04097019774158347	0.02885039877135545	0.2831350114564485	-26.75659822216657	-8.457706745448133	1.712511759942265	6.36564745695524	-642.2464871564353	-45.89810828281693	-1.400972002227347	1.480009012697042	0.2593718713270609	1.958534701739094	-6.766608410339927	-0.03387268781531789	-2.352860045193654	0.008714568987008394	-5.287271072945386	-5.287271072943779	-0.5199637260442239	0.02878944924959808	-0.6627080087301513	-0.3961991284737881	-1.78983663105185e-08	-3.107571952987959e-09	1.125821816250257e-07	6.758810902157852e-09	-3.087614383701216e-08	1.680234831288159e-07	-3.168083660621683e-08
1.04	-0.5465467235738773	-0.08025441303745279	0.5752967702012501	1.829315346015493	-0.467976336645358	0.01195409572122037	-0.2617838463327087	1.383329060395692	1.38332906039549	-0.08373346938972162	-0.1745321966404134	0.2219949605625999	-0.00968042866533758	0.04225721873277434	0.02065967152451407	0.08011660837296769	-0.2702242857435144	-0.004502711102553658	-0.08924033121604942	8.313490138008367e-05	-0.2073439250116635	-0.2073439250116514	-0.02713840783145783	0.0001780020498031348	-0.005890788478883603	-0.007852398966389123	-0.3307119693093663	0.01636378238319267	5.321081478549161e-05	-0.3058713905112312	0.04084164413159826	0.02894726076465039	0.2828600705497882	-26.77651945766358	-8.508727379478232	1.734857096208259	6.298034447273815	-641.9695792412059	-45.94503479859899	-1.437120692747377	1.509345033842691	0.264141054099582	1.954914597193989	-6.786816824216289	-0.04917359805389444	-2.300227030244128	-0.02153587074388735	-5.285485689851479	-5.285485689851406	-0.5985669948147442	0.009056928421815789	-0.6777554607661024	-0.4254445267238939	-2.520672562544578e-08	-9.418469190082114e-09	1.547292161834908e-07	8.629376531664712e-09	-4.056508591076306e-08	2.145629459436048e-07	-4.263602930049728e-08
1.05	-0.5460495581138155	-0.08003461822560509	0.5761953909757902	1.826275378997973	-0.4680224981003754	0.01094582750975508	-0.2617831036678715	1.380991599879163	1.380991599878951	-0.08403186316651647	-0.1745283038987938	0.2219021812949398	-0.009778493629755488	0.05718099961687608	0.02330602577390936	0.09958927309713027	-0.3377277068666425	-0.004692118247193067	-0.1123723302543724	6.481405821880694e-05	-0.2601338887809204	-0.2601338887809226	-0.032525055952737	0.0006468150857903917	-0.01268527638641831	-0.01172442740218332	-0.33004133542441	0.01660785571704877	-2.667712498688989e-05	-0.305432029474396	0.04078673331235429	0.02909657402842682	0.2823908730193292	-26.7539396728829	-8.596930116341014	1.771081227930667	6.164327617483375	-641.410252421149	-46.0427658445418	-1.484468091066035	1.484658179018823	0.2658949683937664	1.940691245538837	-6.725899501941933	0.001775272569742231	-2.313572788227999	0.007932207626548518	-5.273597465615337	-5.273597465617547	-0.5064389849479056	0.07278255370383377	-0.6833264074541147	-0.3626777642988629	-3.25206523799803e-08	-1.575233426734078e-08	1.968434756991779e-07	1.049890653400064e-08	-5.02546399618543e-08	2.610343148916069e-07	-5.358621722311332e-08
1.06	-0.5454030021322462	-0.07978815739965657	0.5772881881646741	1.822561618820105	-0.4680694337177915	0.009707462018379111	-0.2617825617317165	1.378126670575913	1.37812667057569	-0.08438366847736196	-0.1745183252142982	0.2217408509578627	-0.009914198030989658	0.07213532303397183	0.02599287434467831	0.1189518912417549	-0.4049829178130055	-0.004657543582282481	-0.1352597871967615	4.298916420953808e-05	-0.312837682356278	-0.3128376823562949	-0.03782071464055285	0.001395190622440428	-0.01960100236223084	-0.01538028632964684	-0.3293707015394636	0.01685192905088842	-0.0001065650648059019	-0.3049926684375607	0.04073182249310731	0.02924588729218106	0.2819216754888627	-26.73725683017901	-8.684084028387675	1.807119591827836	6.051965568014459	-640.9347028537514	-46.12061706034935	-1.543503857166878	1.515453540441478	0.2722399183743271	1.932905281286395	-6.737174788863266	-0.004377236143936657	-2.25131861105738	-0.02223668091350048	-5.268251651071584	-5.268251651071571	-0.5803691081220953	0.06496942855429406	-0.7020030744216499	-0.382210625057802	-3.958366287184325e-08	-2.230507375901079e-08	2.378941062176842e-07	1.208525466232626e-08	-5.955944619792925e-08	3.046070854681618e-07	-6.413656882454767e-08
1.07	-0.5446066888405015	-0.07951458327220641	0.5785739800742123	1.818176679387185	-0.4681148584413185	0.008241552068402143	-0.2617822578989273	1.374735260261123	1.374735260261086	-0.08478796842323998	-0.1744994726495077	0.2215097179985922	-0.01008534386833681	0.08713671141778409	0.02873268641285922	0.1381800541778362	-0.4719486693617828	-0.004382621948361535	-0.1578699385792581	1.887531824074709e-05	-0.3654179570893505	-0.365417957089361	-0.04301952327873212	0.002426698927162051	-0.02664894797578917	-0.0188050760508329	-0.3284110557712779	0.01714143525715511	-0.0002191601878173404	-0.3044016781019336	0.04076497047473391	0.02946002971650533	0.2812589209339956	-26.67095044247689	-8.816158053926648	1.859544197878152	5.852066093965331	-640.1495082698575	-46.25855813406023	-1.614885988971587	1.493880527703648	0.2764648947176309	1.913792426510275	-6.667839156886694	0.05011506411461689	-2.258070958581562	0.00766595220406409	-5.248936775550668	-5.248936775549612	-0.4867004722572502	0.1300164005617157	-0.7096932453076046	-0.3160707060695874	-4.663332675398961e-08	-2.886945550676652e-08	2.788881607257022e-07	1.365653992501304e-08	-6.884378712469483e-08	3.48025675280278e-07	-7.466565253655746e-08
1.08	-0.5436600818568467	-0.07921328841533889	0.5800512577384596	1.813123769674978	-0.4681561963083152	0.006551099093247436	-0.2617821622668648	1.370818842920778	1.370818842920926	-0.08524366920162205	-0.1744687500278262	0.2212074049950891	-0.01028942911497991	0.1021940614156961	0.03153702022814826	0.1572490421835743	-0.5385769736706295	-0.003840172276258859	-0.180168392231186	1.349017977670747e-06	-0.4178390874674455	-0.417839087467445	-0.04810088114056798	0.003769201997106258	-0.03383701120873409	-0.02196816818884348	-0.3274514100030929	0.01743094146340969	-0.0003317553108614442	-0.3038106877663068	0.04079811845635726	0.02967417214081266	0.2805961663791302	-26.61060648613379	-8.947110883514561	1.911701947118186	5.673593381721572	-639.4489890103796	-46.37829866446886	-1.699328270086166	1.526645863261407	0.2851442677959627	1.901070295217745	-6.669685340877155	0.04912837149238155	-2.18897906494366	-0.02091917177235098	-5.236422780076058	-5.23642278007512	-0.5568789528534226	0.1271683815987596	-0.7300265982989559	-0.3298711084227352	-5.314105110458878e-08	-3.505048743274996e-08	3.180300259906278e-07	1.5458854132603e-08	-7.770653244224426e-08	3.861687183573447e-07	-8.421358988113383e-08
